<svg xmlns="http://www.w3.org/2000/svg" xmlns:xlink="http://www.w3.org/1999/xlink" width="250" zoomAndPan="magnify" viewBox="0 0 187.5 187.499992" height="250" preserveAspectRatio="xMidYMid meet" version="1.0"><defs><g/><clipPath id="a1ab098de2"><path d="M 1.6875 69.496094 L 39 69.496094 L 39 109.890625 L 1.6875 109.890625 Z M 1.6875 69.496094 " clip-rule="nonzero"/></clipPath><clipPath id="c042b394b2"><path d="M 11 79 L 42 79 L 42 109.890625 L 11 109.890625 Z M 11 79 " clip-rule="nonzero"/></clipPath><clipPath id="4ebe36a071"><path d="M 44 69.496094 L 45.820312 69.496094 L 45.820312 109.890625 L 44 109.890625 Z M 44 69.496094 " clip-rule="nonzero"/></clipPath></defs><g fill="#141414" fill-opacity="1"><g transform="translate(50.356884, 97.585737)"><g><path d="M 24.9375 -3.609375 C 25 -3.460938 25.023438 -3.285156 25.015625 -3.078125 C 25.003906 -2.867188 24.890625 -2.785156 24.671875 -2.828125 C 23.753906 -2.953125 22.84375 -2.878906 21.9375 -2.609375 C 21.039062 -2.335938 20.171875 -1.972656 19.328125 -1.515625 C 18.484375 -1.054688 17.703125 -0.59375 16.984375 -0.125 C 16.921875 -0.101562 16.863281 -0.0703125 16.8125 -0.03125 C 16.769531 0.0078125 16.71875 0.0390625 16.65625 0.0625 C 16.769531 0.175781 16.867188 0.285156 16.953125 0.390625 C 17.367188 0.878906 17.53125 1.335938 17.4375 1.765625 C 17.351562 2.191406 17.128906 2.582031 16.765625 2.9375 C 16.410156 3.300781 16.035156 3.632812 15.640625 3.9375 C 14.148438 5.03125 12.484375 5.773438 10.640625 6.171875 C 10.335938 6.222656 10.035156 6.113281 9.734375 5.84375 C 9.441406 5.582031 9.296875 5.300781 9.296875 5 C 9.296875 4.425781 9.425781 3.921875 9.6875 3.484375 C 9.945312 3.046875 10.269531 2.644531 10.65625 2.28125 C 11.039062 1.914062 11.429688 1.5625 11.828125 1.21875 C 12.046875 1.039062 12.273438 0.863281 12.515625 0.6875 C 12.753906 0.507812 12.984375 0.332031 13.203125 0.15625 C 12.546875 -0.0078125 11.878906 -0.175781 11.203125 -0.34375 C 10.523438 -0.507812 9.859375 -0.671875 9.203125 -0.828125 C 8.429688 -1.023438 7.597656 -1.25 6.703125 -1.5 C 5.804688 -1.75 4.953125 -2.070312 4.140625 -2.46875 C 3.328125 -2.863281 2.625 -3.375 2.03125 -4 C 1.445312 -4.632812 1.078125 -5.414062 0.921875 -6.34375 C 0.765625 -7.34375 0.929688 -8.257812 1.421875 -9.09375 C 1.921875 -9.925781 2.5 -10.671875 3.15625 -11.328125 C 3.875 -12.035156 4.644531 -12.695312 5.46875 -13.3125 C 6.289062 -13.9375 7.140625 -14.503906 8.015625 -15.015625 C 9.835938 -16.066406 11.753906 -16.882812 13.765625 -17.46875 C 14.335938 -17.625 14.972656 -17.789062 15.671875 -17.96875 C 16.367188 -18.144531 17.0625 -18.253906 17.75 -18.296875 C 18.445312 -18.335938 19.097656 -18.257812 19.703125 -18.0625 C 20.472656 -17.78125 21.097656 -17.285156 21.578125 -16.578125 C 22.066406 -15.878906 22.363281 -15.128906 22.46875 -14.328125 C 22.550781 -13.640625 22.484375 -12.976562 22.265625 -12.34375 C 22.046875 -11.71875 21.75 -11.125 21.375 -10.5625 C 21.007812 -10 20.628906 -9.457031 20.234375 -8.9375 C 20.128906 -8.78125 19.976562 -8.734375 19.78125 -8.796875 C 19.582031 -8.867188 19.394531 -8.992188 19.21875 -9.171875 C 19.039062 -9.359375 18.90625 -9.554688 18.8125 -9.765625 C 18.726562 -9.972656 18.742188 -10.15625 18.859375 -10.3125 C 19.140625 -10.6875 19.4375 -11.109375 19.75 -11.578125 C 20.070312 -12.046875 20.347656 -12.535156 20.578125 -13.046875 C 20.804688 -13.566406 20.929688 -14.082031 20.953125 -14.59375 C 20.984375 -15.113281 20.851562 -15.613281 20.5625 -16.09375 C 20.363281 -16.40625 20.070312 -16.597656 19.6875 -16.671875 C 19.3125 -16.742188 18.921875 -16.742188 18.515625 -16.671875 C 18.109375 -16.597656 17.75 -16.539062 17.4375 -16.5 C 16.4375 -16.320312 15.453125 -16.085938 14.484375 -15.796875 C 12.648438 -15.253906 10.910156 -14.5 9.265625 -13.53125 C 7.617188 -12.570312 6.109375 -11.4375 4.734375 -10.125 C 4.335938 -9.75 3.925781 -9.296875 3.5 -8.765625 C 3.070312 -8.242188 2.753906 -7.6875 2.546875 -7.09375 C 2.335938 -6.5 2.363281 -5.894531 2.625 -5.28125 C 2.800781 -4.84375 3.09375 -4.476562 3.5 -4.1875 C 3.90625 -3.894531 4.347656 -3.660156 4.828125 -3.484375 C 5.304688 -3.304688 5.753906 -3.148438 6.171875 -3.015625 C 7.140625 -2.734375 8.125 -2.476562 9.125 -2.25 C 10.132812 -2.019531 11.125 -1.785156 12.09375 -1.546875 C 12.507812 -1.453125 12.941406 -1.359375 13.390625 -1.265625 C 13.835938 -1.171875 14.28125 -1.066406 14.71875 -0.953125 C 14.851562 -1.054688 14.992188 -1.148438 15.140625 -1.234375 C 15.296875 -1.328125 15.441406 -1.421875 15.578125 -1.515625 C 16.378906 -2.015625 17.226562 -2.507812 18.125 -3 C 19.03125 -3.5 19.96875 -3.890625 20.9375 -4.171875 C 21.914062 -4.453125 22.894531 -4.53125 23.875 -4.40625 C 24.363281 -4.351562 24.71875 -4.085938 24.9375 -3.609375 Z M 15.640625 1.34375 C 15.816406 1.164062 15.914062 1.046875 15.9375 0.984375 C 15.957031 0.921875 15.859375 0.851562 15.640625 0.78125 C 14.890625 1.3125 14.164062 1.851562 13.46875 2.40625 C 13.1875 2.625 12.878906 2.863281 12.546875 3.125 C 12.222656 3.382812 11.9375 3.664062 11.6875 3.96875 C 12.414062 3.664062 13.113281 3.296875 13.78125 2.859375 C 14.445312 2.421875 15.066406 1.914062 15.640625 1.34375 Z M 15.640625 1.34375 "/></g></g></g><g fill="#141414" fill-opacity="1"><g transform="translate(74.395313, 97.585737)"><g><path d="M 13.890625 -3.875 C 14.085938 -3.96875 14.285156 -3.945312 14.484375 -3.8125 C 14.679688 -3.675781 14.804688 -3.5 14.859375 -3.28125 C 14.921875 -3.0625 14.828125 -2.878906 14.578125 -2.734375 C 13.679688 -2.222656 12.765625 -1.675781 11.828125 -1.09375 C 10.890625 -0.519531 9.925781 -0.0664062 8.9375 0.265625 C 8.382812 0.441406 7.835938 0.40625 7.296875 0.15625 C 6.765625 -0.0820312 6.46875 -0.53125 6.40625 -1.1875 C 6.382812 -1.488281 6.410156 -1.789062 6.484375 -2.09375 C 6.566406 -2.40625 6.660156 -2.703125 6.765625 -2.984375 C 6.847656 -3.179688 6.925781 -3.378906 7 -3.578125 C 7.082031 -3.773438 7.148438 -3.972656 7.203125 -4.171875 C 4.785156 -2.816406 2.644531 -1.109375 0.78125 0.953125 C 0.675781 1.066406 0.53125 1.085938 0.34375 1.015625 C 0.15625 0.953125 0.0078125 0.878906 -0.09375 0.796875 C -0.75 0.304688 -1.078125 -0.25 -1.078125 -0.875 C -1.078125 -1.5 -0.957031 -2.171875 -0.71875 -2.890625 C -0.101562 -4.597656 0.570312 -6.285156 1.3125 -7.953125 C 2.0625 -9.640625 2.890625 -11.289062 3.796875 -12.90625 C 4.703125 -14.53125 5.660156 -16.109375 6.671875 -17.640625 C 6.773438 -17.796875 6.925781 -17.84375 7.125 -17.78125 C 7.320312 -17.726562 7.507812 -17.609375 7.6875 -17.421875 C 7.863281 -17.242188 7.992188 -17.046875 8.078125 -16.828125 C 8.171875 -16.609375 8.171875 -16.421875 8.078125 -16.265625 C 6.328125 -13.640625 4.785156 -10.929688 3.453125 -8.140625 C 2.796875 -6.742188 2.179688 -5.320312 1.609375 -3.875 C 1.367188 -3.257812 1.128906 -2.613281 0.890625 -1.9375 C 1.648438 -2.632812 2.4375 -3.28125 3.25 -3.875 C 4.0625 -4.46875 4.90625 -5.023438 5.78125 -5.546875 C 6.21875 -5.796875 6.640625 -5.972656 7.046875 -6.078125 C 7.453125 -6.179688 7.863281 -6.039062 8.28125 -5.65625 C 8.625 -5.34375 8.816406 -4.984375 8.859375 -4.578125 C 8.910156 -4.171875 8.890625 -3.757812 8.796875 -3.34375 C 8.734375 -3 8.632812 -2.664062 8.5 -2.34375 C 8.375 -2.03125 8.265625 -1.71875 8.171875 -1.40625 C 9.117188 -1.695312 10.09375 -2.054688 11.09375 -2.484375 C 12.101562 -2.910156 13.035156 -3.375 13.890625 -3.875 Z M 13.890625 -3.875 "/></g></g></g><g fill="#141414" fill-opacity="1"><g transform="translate(88.425177, 97.585737)"><g><path d="M 5.625 -3.6875 C 5.8125 -3.851562 6.015625 -3.890625 6.234375 -3.796875 C 6.460938 -3.710938 6.628906 -3.566406 6.734375 -3.359375 C 6.835938 -3.148438 6.796875 -2.960938 6.609375 -2.796875 C 6.140625 -2.398438 5.648438 -2.007812 5.140625 -1.625 C 4.628906 -1.238281 4.117188 -0.863281 3.609375 -0.5 C 3.171875 -0.226562 2.710938 0.0507812 2.234375 0.34375 C 1.753906 0.644531 1.269531 0.859375 0.78125 0.984375 C 0.375 1.046875 0 0.984375 -0.34375 0.796875 C -0.6875 0.617188 -0.96875 0.363281 -1.1875 0.03125 C -1.40625 -0.289062 -1.515625 -0.648438 -1.515625 -1.046875 C -1.535156 -1.703125 -1.359375 -2.378906 -0.984375 -3.078125 C -0.609375 -3.785156 -0.257812 -4.414062 0.0625 -4.96875 C 0.175781 -5.15625 0.332031 -5.226562 0.53125 -5.1875 C 0.726562 -5.144531 0.925781 -5.039062 1.125 -4.875 C 1.332031 -4.71875 1.484375 -4.539062 1.578125 -4.34375 C 1.679688 -4.144531 1.691406 -3.976562 1.609375 -3.84375 C 1.347656 -3.40625 1.109375 -2.960938 0.890625 -2.515625 C 0.671875 -2.066406 0.472656 -1.613281 0.296875 -1.15625 C 0.253906 -1.039062 0.207031 -0.914062 0.15625 -0.78125 C 0.570312 -0.832031 1.113281 -1.015625 1.78125 -1.328125 C 2.457031 -1.648438 3.148438 -2.023438 3.859375 -2.453125 C 4.566406 -2.878906 5.15625 -3.289062 5.625 -3.6875 Z M 2.953125 -6.796875 C 2.828125 -6.554688 2.617188 -6.492188 2.328125 -6.609375 C 2.046875 -6.734375 1.796875 -6.925781 1.578125 -7.1875 C 1.359375 -7.457031 1.300781 -7.703125 1.40625 -7.921875 C 1.582031 -8.285156 1.707031 -8.550781 1.78125 -8.71875 C 1.863281 -8.882812 1.90625 -8.96875 1.90625 -8.96875 C 2.019531 -9.144531 2.175781 -9.21875 2.375 -9.1875 C 2.582031 -9.15625 2.78125 -9.0625 2.96875 -8.90625 C 3.15625 -8.75 3.300781 -8.570312 3.40625 -8.375 C 3.519531 -8.175781 3.535156 -8 3.453125 -7.84375 C 3.453125 -7.84375 3.421875 -7.773438 3.359375 -7.640625 C 3.304688 -7.515625 3.171875 -7.234375 2.953125 -6.796875 Z M 2.953125 -6.796875 "/></g></g></g><g fill="#141414" fill-opacity="1"><g transform="translate(94.263504, 97.585737)"><g><path d="M 11.921875 -3.84375 C 12.140625 -3.945312 12.335938 -3.925781 12.515625 -3.78125 C 12.691406 -3.644531 12.796875 -3.472656 12.828125 -3.265625 C 12.859375 -3.054688 12.742188 -2.890625 12.484375 -2.765625 C 11.734375 -2.390625 10.988281 -1.988281 10.25 -1.5625 C 9.507812 -1.132812 8.773438 -0.691406 8.046875 -0.234375 C 7.609375 0.0351562 7.140625 0.332031 6.640625 0.65625 C 6.148438 0.988281 5.632812 1.226562 5.09375 1.375 C 4.582031 1.488281 4.128906 1.347656 3.734375 0.953125 C 3.347656 0.554688 3.195312 0.0976562 3.28125 -0.421875 C 3.320312 -0.710938 3.394531 -1.003906 3.5 -1.296875 C 3.613281 -1.585938 3.738281 -1.878906 3.875 -2.171875 C 2.164062 -1.222656 0.675781 0.00390625 -0.59375 1.515625 C -0.75 1.710938 -0.953125 1.738281 -1.203125 1.59375 C -1.453125 1.445312 -1.664062 1.234375 -1.84375 0.953125 C -2.019531 0.671875 -2.09375 0.441406 -2.0625 0.265625 C -1.863281 -0.484375 -1.59375 -1.222656 -1.25 -1.953125 C -0.914062 -2.679688 -0.550781 -3.390625 -0.15625 -4.078125 C -0.0507812 -4.253906 0.0976562 -4.328125 0.296875 -4.296875 C 0.492188 -4.273438 0.691406 -4.179688 0.890625 -4.015625 C 1.085938 -3.859375 1.234375 -3.675781 1.328125 -3.46875 C 1.429688 -3.257812 1.445312 -3.085938 1.375 -2.953125 C 1.375 -2.929688 1.367188 -2.910156 1.359375 -2.890625 C 1.347656 -2.867188 1.332031 -2.847656 1.3125 -2.828125 C 2.664062 -3.765625 4.125 -4.472656 5.6875 -4.953125 C 5.90625 -5.023438 6.132812 -4.976562 6.375 -4.8125 C 6.613281 -4.644531 6.796875 -4.4375 6.921875 -4.1875 C 7.054688 -3.9375 7.0625 -3.703125 6.9375 -3.484375 C 6.6875 -3.066406 6.445312 -2.644531 6.21875 -2.21875 C 5.988281 -1.789062 5.765625 -1.359375 5.546875 -0.921875 C 6.578125 -1.441406 7.640625 -1.9375 8.734375 -2.40625 C 9.828125 -2.882812 10.890625 -3.363281 11.921875 -3.84375 Z M 11.921875 -3.84375 "/></g></g></g><g fill="#141414" fill-opacity="1"><g transform="translate(106.26783, 97.585737)"><g><path d="M 7.75 -3.71875 C 7.945312 -3.882812 8.164062 -3.910156 8.40625 -3.796875 C 8.644531 -3.691406 8.8125 -3.53125 8.90625 -3.3125 C 9.007812 -3.09375 8.960938 -2.921875 8.765625 -2.796875 C 7.585938 -2.023438 6.378906 -1.238281 5.140625 -0.4375 C 3.898438 0.351562 2.613281 0.984375 1.28125 1.453125 C 0.78125 1.640625 0.296875 1.71875 -0.171875 1.6875 C -0.648438 1.65625 -1.070312 1.410156 -1.4375 0.953125 C -1.789062 0.472656 -1.910156 -0.0546875 -1.796875 -0.640625 C -1.691406 -1.222656 -1.46875 -1.78125 -1.125 -2.3125 C -0.789062 -2.851562 -0.457031 -3.304688 -0.125 -3.671875 C 0.175781 -4.003906 0.535156 -4.304688 0.953125 -4.578125 C 1.367188 -4.859375 1.800781 -5.019531 2.25 -5.0625 C 2.695312 -5.101562 3.109375 -4.914062 3.484375 -4.5 C 3.828125 -4.164062 3.96875 -3.828125 3.90625 -3.484375 C 3.84375 -3.148438 3.65625 -2.835938 3.34375 -2.546875 C 3.039062 -2.253906 2.679688 -1.988281 2.265625 -1.75 C 1.847656 -1.519531 1.445312 -1.3125 1.0625 -1.125 C 0.675781 -0.945312 0.375 -0.800781 0.15625 -0.6875 C 0.0507812 -0.46875 -0.03125 -0.25 -0.09375 -0.03125 C 0.34375 -0.09375 0.910156 -0.25 1.609375 -0.5 C 2.304688 -0.757812 3.046875 -1.078125 3.828125 -1.453125 C 4.609375 -1.835938 5.347656 -2.226562 6.046875 -2.625 C 6.742188 -3.019531 7.3125 -3.382812 7.75 -3.71875 Z M 7.75 -3.71875 "/></g></g></g><g fill="#141414" fill-opacity="1"><g transform="translate(114.161486, 97.585737)"><g/></g></g><g fill="#141414" fill-opacity="1"><g transform="translate(125.391333, 97.585737)"><g><path d="M 24.9375 -3.609375 C 25 -3.460938 25.023438 -3.285156 25.015625 -3.078125 C 25.003906 -2.867188 24.890625 -2.785156 24.671875 -2.828125 C 23.753906 -2.953125 22.84375 -2.878906 21.9375 -2.609375 C 21.039062 -2.335938 20.171875 -1.972656 19.328125 -1.515625 C 18.484375 -1.054688 17.703125 -0.59375 16.984375 -0.125 C 16.921875 -0.101562 16.863281 -0.0703125 16.8125 -0.03125 C 16.769531 0.0078125 16.71875 0.0390625 16.65625 0.0625 C 16.769531 0.175781 16.867188 0.285156 16.953125 0.390625 C 17.367188 0.878906 17.53125 1.335938 17.4375 1.765625 C 17.351562 2.191406 17.128906 2.582031 16.765625 2.9375 C 16.410156 3.300781 16.035156 3.632812 15.640625 3.9375 C 14.148438 5.03125 12.484375 5.773438 10.640625 6.171875 C 10.335938 6.222656 10.035156 6.113281 9.734375 5.84375 C 9.441406 5.582031 9.296875 5.300781 9.296875 5 C 9.296875 4.425781 9.425781 3.921875 9.6875 3.484375 C 9.945312 3.046875 10.269531 2.644531 10.65625 2.28125 C 11.039062 1.914062 11.429688 1.5625 11.828125 1.21875 C 12.046875 1.039062 12.273438 0.863281 12.515625 0.6875 C 12.753906 0.507812 12.984375 0.332031 13.203125 0.15625 C 12.546875 -0.0078125 11.878906 -0.175781 11.203125 -0.34375 C 10.523438 -0.507812 9.859375 -0.671875 9.203125 -0.828125 C 8.429688 -1.023438 7.597656 -1.25 6.703125 -1.5 C 5.804688 -1.75 4.953125 -2.070312 4.140625 -2.46875 C 3.328125 -2.863281 2.625 -3.375 2.03125 -4 C 1.445312 -4.632812 1.078125 -5.414062 0.921875 -6.34375 C 0.765625 -7.34375 0.929688 -8.257812 1.421875 -9.09375 C 1.921875 -9.925781 2.5 -10.671875 3.15625 -11.328125 C 3.875 -12.035156 4.644531 -12.695312 5.46875 -13.3125 C 6.289062 -13.9375 7.140625 -14.503906 8.015625 -15.015625 C 9.835938 -16.066406 11.753906 -16.882812 13.765625 -17.46875 C 14.335938 -17.625 14.972656 -17.789062 15.671875 -17.96875 C 16.367188 -18.144531 17.0625 -18.253906 17.75 -18.296875 C 18.445312 -18.335938 19.097656 -18.257812 19.703125 -18.0625 C 20.472656 -17.78125 21.097656 -17.285156 21.578125 -16.578125 C 22.066406 -15.878906 22.363281 -15.128906 22.46875 -14.328125 C 22.550781 -13.640625 22.484375 -12.976562 22.265625 -12.34375 C 22.046875 -11.71875 21.75 -11.125 21.375 -10.5625 C 21.007812 -10 20.628906 -9.457031 20.234375 -8.9375 C 20.128906 -8.78125 19.976562 -8.734375 19.78125 -8.796875 C 19.582031 -8.867188 19.394531 -8.992188 19.21875 -9.171875 C 19.039062 -9.359375 18.90625 -9.554688 18.8125 -9.765625 C 18.726562 -9.972656 18.742188 -10.15625 18.859375 -10.3125 C 19.140625 -10.6875 19.4375 -11.109375 19.75 -11.578125 C 20.070312 -12.046875 20.347656 -12.535156 20.578125 -13.046875 C 20.804688 -13.566406 20.929688 -14.082031 20.953125 -14.59375 C 20.984375 -15.113281 20.851562 -15.613281 20.5625 -16.09375 C 20.363281 -16.40625 20.070312 -16.597656 19.6875 -16.671875 C 19.3125 -16.742188 18.921875 -16.742188 18.515625 -16.671875 C 18.109375 -16.597656 17.75 -16.539062 17.4375 -16.5 C 16.4375 -16.320312 15.453125 -16.085938 14.484375 -15.796875 C 12.648438 -15.253906 10.910156 -14.5 9.265625 -13.53125 C 7.617188 -12.570312 6.109375 -11.4375 4.734375 -10.125 C 4.335938 -9.75 3.925781 -9.296875 3.5 -8.765625 C 3.070312 -8.242188 2.753906 -7.6875 2.546875 -7.09375 C 2.335938 -6.5 2.363281 -5.894531 2.625 -5.28125 C 2.800781 -4.84375 3.09375 -4.476562 3.5 -4.1875 C 3.90625 -3.894531 4.347656 -3.660156 4.828125 -3.484375 C 5.304688 -3.304688 5.753906 -3.148438 6.171875 -3.015625 C 7.140625 -2.734375 8.125 -2.476562 9.125 -2.25 C 10.132812 -2.019531 11.125 -1.785156 12.09375 -1.546875 C 12.507812 -1.453125 12.941406 -1.359375 13.390625 -1.265625 C 13.835938 -1.171875 14.28125 -1.066406 14.71875 -0.953125 C 14.851562 -1.054688 14.992188 -1.148438 15.140625 -1.234375 C 15.296875 -1.328125 15.441406 -1.421875 15.578125 -1.515625 C 16.378906 -2.015625 17.226562 -2.507812 18.125 -3 C 19.03125 -3.5 19.96875 -3.890625 20.9375 -4.171875 C 21.914062 -4.453125 22.894531 -4.53125 23.875 -4.40625 C 24.363281 -4.351562 24.71875 -4.085938 24.9375 -3.609375 Z M 15.640625 1.34375 C 15.816406 1.164062 15.914062 1.046875 15.9375 0.984375 C 15.957031 0.921875 15.859375 0.851562 15.640625 0.78125 C 14.890625 1.3125 14.164062 1.851562 13.46875 2.40625 C 13.1875 2.625 12.878906 2.863281 12.546875 3.125 C 12.222656 3.382812 11.9375 3.664062 11.6875 3.96875 C 12.414062 3.664062 13.113281 3.296875 13.78125 2.859375 C 14.445312 2.421875 15.066406 1.914062 15.640625 1.34375 Z M 15.640625 1.34375 "/></g></g></g><g fill="#141414" fill-opacity="1"><g transform="translate(149.429762, 97.585737)"><g><path d="M 14.8125 -11.4375 C 14.988281 -11.34375 15.171875 -11.191406 15.359375 -10.984375 C 15.546875 -10.773438 15.628906 -10.5625 15.609375 -10.34375 C 15.585938 -10.125 15.5 -10 15.34375 -9.96875 C 15.1875 -9.9375 15.019531 -9.972656 14.84375 -10.078125 C 14.0625 -10.472656 13.242188 -10.738281 12.390625 -10.875 C 11.535156 -11.007812 10.679688 -11.109375 9.828125 -11.171875 C 8.140625 -11.273438 6.441406 -11.316406 4.734375 -11.296875 C 4.710938 -11.296875 4.691406 -11.296875 4.671875 -11.296875 C 4.648438 -11.296875 4.640625 -11.296875 4.640625 -11.296875 C 3.773438 -9.367188 2.976562 -7.410156 2.25 -5.421875 C 1.519531 -3.429688 0.941406 -1.414062 0.515625 0.625 C 0.0859375 2.664062 -0.101562 4.753906 -0.0625 6.890625 C -0.0625 7.117188 -0.140625 7.242188 -0.296875 7.265625 C -0.453125 7.285156 -0.632812 7.226562 -0.84375 7.09375 C -1.050781 6.96875 -1.234375 6.8125 -1.390625 6.625 C -1.554688 6.4375 -1.640625 6.253906 -1.640625 6.078125 C -1.703125 3.054688 -1.3125 0.109375 -0.46875 -2.765625 C 0.363281 -5.648438 1.375 -8.460938 2.5625 -11.203125 C -0.300781 -11.046875 -3.128906 -10.695312 -5.921875 -10.15625 C -6.109375 -10.113281 -6.304688 -10.160156 -6.515625 -10.296875 C -6.722656 -10.441406 -6.898438 -10.613281 -7.046875 -10.8125 C -7.191406 -11.007812 -7.273438 -11.195312 -7.296875 -11.375 C -7.316406 -11.5625 -7.238281 -11.671875 -7.0625 -11.703125 C -5.351562 -12.023438 -3.632812 -12.285156 -1.90625 -12.484375 C -0.175781 -12.679688 1.5625 -12.800781 3.3125 -12.84375 C 3.625 -13.539062 3.9375 -14.226562 4.25 -14.90625 C 4.570312 -15.59375 4.90625 -16.273438 5.25 -16.953125 C 5.320312 -17.128906 5.457031 -17.203125 5.65625 -17.171875 C 5.851562 -17.148438 6.050781 -17.054688 6.25 -16.890625 C 6.457031 -16.734375 6.613281 -16.554688 6.71875 -16.359375 C 6.832031 -16.160156 6.847656 -15.984375 6.765625 -15.828125 C 6.523438 -15.328125 6.289062 -14.832031 6.0625 -14.34375 C 5.832031 -13.851562 5.597656 -13.375 5.359375 -12.90625 C 6.410156 -12.90625 7.488281 -12.882812 8.59375 -12.84375 C 9.695312 -12.800781 10.78125 -12.675781 11.84375 -12.46875 C 12.90625 -12.257812 13.894531 -11.914062 14.8125 -11.4375 Z M 14.8125 -11.4375 "/></g></g></g><g fill="#141414" fill-opacity="1"><g transform="translate(153.540421, 97.585737)"><g><path d="M 10.453125 -3.78125 C 10.640625 -3.957031 10.835938 -3.992188 11.046875 -3.890625 C 11.265625 -3.796875 11.421875 -3.640625 11.515625 -3.421875 C 11.609375 -3.203125 11.570312 -3.003906 11.40625 -2.828125 C 10.8125 -2.210938 10.207031 -1.601562 9.59375 -1 C 8.976562 -0.394531 8.320312 0.132812 7.625 0.59375 C 7.289062 0.832031 6.941406 1.007812 6.578125 1.125 C 6.222656 1.25 5.859375 1.191406 5.484375 0.953125 C 5.085938 0.710938 4.820312 0.398438 4.6875 0.015625 C 4.5625 -0.367188 4.53125 -0.78125 4.59375 -1.21875 C 4.59375 -1.238281 4.59375 -1.257812 4.59375 -1.28125 C 4.59375 -1.300781 4.601562 -1.320312 4.625 -1.34375 C 4.144531 -0.90625 3.65625 -0.488281 3.15625 -0.09375 C 2.65625 0.300781 2.128906 0.660156 1.578125 0.984375 C 1.078125 1.285156 0.570312 1.457031 0.0625 1.5 C -0.4375 1.550781 -0.882812 1.3125 -1.28125 0.78125 C -1.613281 0.320312 -1.726562 -0.222656 -1.625 -0.859375 C -1.53125 -1.492188 -1.316406 -2.109375 -0.984375 -2.703125 C -0.660156 -3.304688 -0.34375 -3.796875 -0.03125 -4.171875 C 0.09375 -4.304688 0.257812 -4.335938 0.46875 -4.265625 C 0.675781 -4.203125 0.867188 -4.082031 1.046875 -3.90625 C 1.222656 -3.726562 1.347656 -3.535156 1.421875 -3.328125 C 1.503906 -3.117188 1.488281 -2.941406 1.375 -2.796875 C 1.15625 -2.535156 0.960938 -2.257812 0.796875 -1.96875 C 0.640625 -1.6875 0.503906 -1.398438 0.390625 -1.109375 C 0.242188 -0.804688 0.144531 -0.546875 0.09375 -0.328125 C 0.332031 -0.441406 0.5625 -0.582031 0.78125 -0.75 C 1.007812 -0.925781 1.234375 -1.09375 1.453125 -1.25 C 2.191406 -1.820312 2.894531 -2.421875 3.5625 -3.046875 C 4.226562 -3.679688 4.898438 -4.304688 5.578125 -4.921875 C 5.773438 -5.097656 5.992188 -5.109375 6.234375 -4.953125 C 6.484375 -4.804688 6.691406 -4.601562 6.859375 -4.34375 C 7.035156 -4.09375 7.09375 -3.867188 7.03125 -3.671875 C 6.914062 -3.234375 6.789062 -2.796875 6.65625 -2.359375 C 6.53125 -1.921875 6.414062 -1.484375 6.3125 -1.046875 C 6.289062 -0.960938 6.269531 -0.875 6.25 -0.78125 C 6.675781 -0.875 7.15625 -1.097656 7.6875 -1.453125 C 8.21875 -1.816406 8.734375 -2.21875 9.234375 -2.65625 C 9.734375 -3.09375 10.140625 -3.46875 10.453125 -3.78125 Z M 10.453125 -3.78125 "/></g></g></g><g fill="#141414" fill-opacity="1"><g transform="translate(164.114948, 97.585737)"><g><path d="M 11.796875 -17.046875 C 12.054688 -16.960938 12.300781 -16.789062 12.53125 -16.53125 C 12.757812 -16.28125 12.851562 -16.046875 12.8125 -15.828125 C 12.8125 -15.785156 12.800781 -15.742188 12.78125 -15.703125 C 11.25 -12.703125 9.769531 -9.6875 8.34375 -6.65625 C 6.914062 -3.625 5.65625 -0.519531 4.5625 2.65625 C 4.5 2.851562 4.375 2.9375 4.1875 2.90625 C 4 2.875 3.804688 2.78125 3.609375 2.625 C 3.410156 2.476562 3.25 2.300781 3.125 2.09375 C 3.007812 1.882812 2.984375 1.691406 3.046875 1.515625 C 3.253906 0.878906 3.472656 0.238281 3.703125 -0.40625 C 3.929688 -1.050781 4.175781 -1.679688 4.4375 -2.296875 C 3.6875 -1.503906 2.867188 -0.78125 1.984375 -0.125 C 1.097656 0.53125 0.109375 1.054688 -0.984375 1.453125 C -1.179688 1.535156 -1.394531 1.5 -1.625 1.34375 C -1.851562 1.195312 -2.03125 1.003906 -2.15625 0.765625 C -2.289062 0.535156 -2.335938 0.320312 -2.296875 0.125 C -2.097656 -0.769531 -1.757812 -1.640625 -1.28125 -2.484375 C -0.800781 -3.328125 -0.195312 -4.03125 0.53125 -4.59375 C 1.050781 -4.988281 1.609375 -5.171875 2.203125 -5.140625 C 2.796875 -5.109375 3.3125 -4.894531 3.75 -4.5 C 3.875 -4.632812 3.984375 -4.765625 4.078125 -4.890625 C 5.515625 -6.710938 6.804688 -8.640625 7.953125 -10.671875 C 9.109375 -12.710938 10.203125 -14.765625 11.234375 -16.828125 C 11.253906 -16.847656 11.265625 -16.867188 11.265625 -16.890625 C 11.335938 -17.015625 11.457031 -17.078125 11.625 -17.078125 C 11.675781 -17.078125 11.734375 -17.066406 11.796875 -17.046875 Z M 0.125 -1.078125 C 0.65625 -1.410156 1.160156 -1.789062 1.640625 -2.21875 C 2.117188 -2.644531 2.578125 -3.097656 3.015625 -3.578125 C 2.972656 -3.597656 2.941406 -3.609375 2.921875 -3.609375 C 2.859375 -3.609375 2.796875 -3.601562 2.734375 -3.59375 C 2.679688 -3.582031 2.625 -3.566406 2.5625 -3.546875 C 2.40625 -3.503906 2.25 -3.429688 2.09375 -3.328125 C 1.945312 -3.234375 1.816406 -3.140625 1.703125 -3.046875 C 1.503906 -2.859375 1.3125 -2.664062 1.125 -2.46875 C 0.945312 -2.269531 0.78125 -2.070312 0.625 -1.875 C 0.445312 -1.613281 0.28125 -1.347656 0.125 -1.078125 Z M 0.125 -1.078125 "/></g></g></g><g fill="#141414" fill-opacity="1"><g transform="translate(173.706494, 97.585737)"><g><path d="M 5.625 -3.6875 C 5.8125 -3.851562 6.015625 -3.890625 6.234375 -3.796875 C 6.460938 -3.710938 6.628906 -3.566406 6.734375 -3.359375 C 6.835938 -3.148438 6.796875 -2.960938 6.609375 -2.796875 C 6.140625 -2.398438 5.648438 -2.007812 5.140625 -1.625 C 4.628906 -1.238281 4.117188 -0.863281 3.609375 -0.5 C 3.171875 -0.226562 2.710938 0.0507812 2.234375 0.34375 C 1.753906 0.644531 1.269531 0.859375 0.78125 0.984375 C 0.375 1.046875 0 0.984375 -0.34375 0.796875 C -0.6875 0.617188 -0.96875 0.363281 -1.1875 0.03125 C -1.40625 -0.289062 -1.515625 -0.648438 -1.515625 -1.046875 C -1.535156 -1.703125 -1.359375 -2.378906 -0.984375 -3.078125 C -0.609375 -3.785156 -0.257812 -4.414062 0.0625 -4.96875 C 0.175781 -5.15625 0.332031 -5.226562 0.53125 -5.1875 C 0.726562 -5.144531 0.925781 -5.039062 1.125 -4.875 C 1.332031 -4.71875 1.484375 -4.539062 1.578125 -4.34375 C 1.679688 -4.144531 1.691406 -3.976562 1.609375 -3.84375 C 1.347656 -3.40625 1.109375 -2.960938 0.890625 -2.515625 C 0.671875 -2.066406 0.472656 -1.613281 0.296875 -1.15625 C 0.253906 -1.039062 0.207031 -0.914062 0.15625 -0.78125 C 0.570312 -0.832031 1.113281 -1.015625 1.78125 -1.328125 C 2.457031 -1.648438 3.148438 -2.023438 3.859375 -2.453125 C 4.566406 -2.878906 5.15625 -3.289062 5.625 -3.6875 Z M 2.953125 -6.796875 C 2.828125 -6.554688 2.617188 -6.492188 2.328125 -6.609375 C 2.046875 -6.734375 1.796875 -6.925781 1.578125 -7.1875 C 1.359375 -7.457031 1.300781 -7.703125 1.40625 -7.921875 C 1.582031 -8.285156 1.707031 -8.550781 1.78125 -8.71875 C 1.863281 -8.882812 1.90625 -8.96875 1.90625 -8.96875 C 2.019531 -9.144531 2.175781 -9.21875 2.375 -9.1875 C 2.582031 -9.15625 2.78125 -9.0625 2.96875 -8.90625 C 3.15625 -8.75 3.300781 -8.570312 3.40625 -8.375 C 3.519531 -8.175781 3.535156 -8 3.453125 -7.84375 C 3.453125 -7.84375 3.421875 -7.773438 3.359375 -7.640625 C 3.304688 -7.515625 3.171875 -7.234375 2.953125 -6.796875 Z M 2.953125 -6.796875 "/></g></g></g><g fill="#141414" fill-opacity="1"><g transform="translate(179.544821, 97.585737)"><g><path d="M 3.484375 -3.9375 C 3.566406 -3.15625 3.503906 -2.390625 3.296875 -1.640625 C 3.085938 -0.898438 2.742188 -0.234375 2.265625 0.359375 C 1.828125 0.929688 1.296875 1.300781 0.671875 1.46875 C 0.046875 1.644531 -0.546875 1.421875 -1.109375 0.796875 C -1.597656 0.242188 -1.800781 -0.359375 -1.71875 -1.015625 C -1.644531 -1.671875 -1.390625 -2.304688 -0.953125 -2.921875 C -0.515625 -3.535156 -0.0078125 -4.082031 0.5625 -4.5625 C 1.144531 -5.050781 1.671875 -5.414062 2.140625 -5.65625 C 2.335938 -5.757812 2.5625 -5.722656 2.8125 -5.546875 C 3.0625 -5.367188 3.253906 -5.144531 3.390625 -4.875 C 3.535156 -4.601562 3.535156 -4.390625 3.390625 -4.234375 C 3.429688 -4.128906 3.460938 -4.03125 3.484375 -3.9375 Z M 1.453125 -1.9375 C 1.640625 -2.332031 1.769531 -2.75 1.84375 -3.1875 C 1.550781 -2.925781 1.285156 -2.648438 1.046875 -2.359375 C 0.742188 -1.972656 0.492188 -1.5625 0.296875 -1.125 C 0.234375 -1.03125 0.179688 -0.929688 0.140625 -0.828125 C 0.109375 -0.734375 0.0703125 -0.632812 0.03125 -0.53125 C 0.03125 -0.507812 0.0234375 -0.457031 0.015625 -0.375 C 0.00390625 -0.300781 -0.0078125 -0.234375 -0.03125 -0.171875 C 0.09375 -0.273438 0.207031 -0.359375 0.3125 -0.421875 C 0.425781 -0.492188 0.53125 -0.582031 0.625 -0.6875 C 0.957031 -1.0625 1.234375 -1.476562 1.453125 -1.9375 Z M 1.453125 -1.9375 "/></g></g></g><g clip-path="url(#a1ab098de2)"><path fill="#141414" d="M 9.65625 94.410156 C 9.65625 86.496094 15.027344 79.835938 22.320312 77.878906 C 23.738281 77.5 25.230469 77.292969 26.773438 77.292969 C 28.308594 77.292969 29.804688 77.492188 31.226562 77.878906 L 31.636719 77.996094 C 34.078125 78.71875 36.292969 80.074219 38.097656 81.871094 L 38.867188 82.636719 L 37.90625 80.417969 L 37.019531 78.3125 L 36.835938 77.878906 L 36.390625 76.824219 L 36.359375 76.75 L 34.023438 71.203125 C 34.023438 71.203125 33.304688 69.496094 31.539062 69.496094 C 29.921875 69.496094 27.167969 69.496094 27.167969 69.496094 C 27.167969 69.496094 23.417969 69.496094 21.792969 69.496094 C 20.027344 69.496094 19.3125 71.203125 19.3125 71.203125 L 16.503906 77.882812 L 6.472656 77.882812 C 3.839844 77.882812 1.695312 80.023438 1.695312 82.664062 L 1.695312 105.246094 C 1.695312 107.890625 3.839844 110.03125 6.480469 110.03125 L 19.765625 110.03125 C 13.804688 107.355469 9.65625 101.371094 9.65625 94.410156 Z M 9.65625 94.410156 " fill-opacity="1" fill-rule="nonzero"/></g><path fill="#141414" d="M 8.875 76.21875 L 13.699219 76.21875 C 14.40625 76.21875 14.984375 75.640625 14.984375 74.933594 L 14.984375 74.441406 C 14.984375 73.734375 14.40625 73.15625 13.699219 73.15625 L 8.875 73.15625 C 8.167969 73.15625 7.59375 73.734375 7.59375 74.441406 L 7.59375 74.933594 C 7.59375 75.648438 8.167969 76.21875 8.875 76.21875 Z M 8.875 76.21875 " fill-opacity="1" fill-rule="nonzero"/><g clip-path="url(#c042b394b2)"><path fill="#141414" d="M 26.769531 79.367188 C 18.476562 79.367188 11.726562 86.117188 11.726562 94.410156 C 11.726562 102.703125 18.476562 109.449219 26.769531 109.449219 C 35.058594 109.449219 41.808594 102.703125 41.808594 94.410156 C 41.808594 86.117188 35.058594 79.367188 26.769531 79.367188 Z M 26.769531 108.394531 C 19.058594 108.394531 12.78125 102.121094 12.78125 94.410156 C 12.78125 86.699219 19.058594 80.421875 26.769531 80.421875 C 34.476562 80.421875 40.753906 86.699219 40.753906 94.410156 C 40.753906 102.125 34.476562 108.394531 26.769531 108.394531 Z M 26.769531 108.394531 " fill-opacity="1" fill-rule="nonzero"/></g><path fill="#141414" d="M 26.769531 82.433594 L 25.589844 82.464844 C 25.203125 82.507812 24.8125 82.566406 24.417969 82.617188 C 24.035156 82.691406 23.65625 82.800781 23.269531 82.886719 C 22.894531 83 22.527344 83.144531 22.152344 83.273438 C 20.683594 83.859375 19.347656 84.757812 18.222656 85.871094 C 17.113281 86.996094 16.21875 88.332031 15.625 89.796875 C 15.5 90.171875 15.355469 90.539062 15.242188 90.917969 C 15.152344 91.300781 15.046875 91.683594 14.96875 92.066406 C 14.917969 92.453125 14.863281 92.84375 14.820312 93.238281 L 14.789062 94.414062 C 14.835938 92.847656 15.164062 91.292969 15.777344 89.863281 C 16.386719 88.433594 17.265625 87.117188 18.375 86.019531 C 19.464844 84.914062 20.78125 84.035156 22.214844 83.421875 C 23.644531 82.808594 25.203125 82.480469 26.769531 82.433594 Z M 26.769531 82.433594 " fill-opacity="1" fill-rule="nonzero"/><path fill="#141414" d="M 37.324219 88.300781 C 37.816406 89.628906 38.082031 91.0625 38.082031 92.554688 C 38.082031 99.457031 32.34375 105.058594 25.269531 105.058594 C 23.171875 105.058594 21.195312 104.566406 19.445312 103.699219 C 21.484375 105.289062 24.042969 106.230469 26.828125 106.230469 C 33.476562 106.230469 38.859375 100.839844 38.859375 94.199219 C 38.859375 92.054688 38.304688 90.046875 37.324219 88.300781 Z M 37.324219 88.300781 " fill-opacity="1" fill-rule="nonzero"/><g clip-path="url(#4ebe36a071)"><path fill="#141414" d="M 44.816406 69.496094 C 45.109375 72.875 45.261719 76.25 45.367188 79.632812 C 45.433594 81.316406 45.445312 83.011719 45.484375 84.699219 L 45.519531 89.765625 L 45.484375 94.832031 C 45.445312 96.519531 45.433594 98.210938 45.367188 99.898438 C 45.261719 103.277344 45.109375 106.652344 44.816406 110.03125 C 44.527344 106.652344 44.371094 103.277344 44.269531 99.898438 C 44.203125 98.210938 44.191406 96.519531 44.152344 94.832031 L 44.117188 89.765625 L 44.152344 84.699219 C 44.191406 83.011719 44.203125 81.316406 44.269531 79.632812 C 44.378906 76.25 44.527344 72.875 44.816406 69.496094 Z M 44.816406 69.496094 " fill-opacity="1" fill-rule="nonzero"/></g></svg>