<svg xmlns="http://www.w3.org/2000/svg" xmlns:xlink="http://www.w3.org/1999/xlink" width="250" zoomAndPan="magnify" viewBox="0 0 187.5 187.499992" height="250" preserveAspectRatio="xMidYMid meet" version="1.0"><defs><g/><clipPath id="e47b2e5278"><path d="M 3.707031 70.972656 L 40 70.972656 L 40 110.617188 L 3.707031 110.617188 Z M 3.707031 70.972656 " clip-rule="nonzero"/></clipPath><clipPath id="3eea7df73e"><path d="M 45 70.972656 L 46.34375 70.972656 L 46.34375 110.617188 L 45 110.617188 Z M 45 70.972656 " clip-rule="nonzero"/></clipPath></defs><g clip-path="url(#e47b2e5278)"><path fill="#ffffff" d="M 11.476562 95.261719 C 11.476562 87.546875 16.710938 81.054688 23.824219 79.144531 C 25.207031 78.773438 26.660156 78.574219 28.164062 78.574219 C 29.664062 78.574219 31.121094 78.769531 32.503906 79.144531 L 32.90625 79.257812 C 35.289062 79.960938 37.445312 81.289062 39.203125 83.039062 L 39.953125 83.78125 L 39.015625 81.621094 L 38.152344 79.570312 L 37.976562 79.144531 L 37.539062 78.117188 L 37.507812 78.042969 L 35.234375 72.636719 C 35.234375 72.636719 34.535156 70.972656 32.8125 70.972656 C 31.234375 70.972656 28.546875 70.972656 28.546875 70.972656 C 28.546875 70.972656 24.890625 70.972656 23.3125 70.972656 C 21.589844 70.972656 20.890625 72.636719 20.890625 72.636719 L 18.152344 79.148438 L 8.371094 79.148438 C 5.804688 79.148438 3.714844 81.238281 3.714844 83.808594 L 3.714844 105.828125 C 3.714844 108.40625 5.804688 110.492188 8.382812 110.492188 L 21.332031 110.492188 C 15.519531 107.882812 11.476562 102.046875 11.476562 95.261719 Z M 11.476562 95.261719 " fill-opacity="1" fill-rule="nonzero"/></g><path fill="#ffffff" d="M 10.71875 77.527344 L 15.417969 77.527344 C 16.109375 77.527344 16.671875 76.964844 16.671875 76.273438 L 16.671875 75.796875 C 16.671875 75.105469 16.109375 74.542969 15.417969 74.542969 L 10.71875 74.542969 C 10.027344 74.542969 9.464844 75.105469 9.464844 75.796875 L 9.464844 76.273438 C 9.464844 76.96875 10.027344 77.527344 10.71875 77.527344 Z M 10.71875 77.527344 " fill-opacity="1" fill-rule="nonzero"/><path fill="#ffffff" d="M 28.160156 80.597656 C 20.074219 80.597656 13.496094 87.179688 13.496094 95.261719 C 13.496094 103.347656 20.074219 109.925781 28.160156 109.925781 C 36.242188 109.925781 42.824219 103.347656 42.824219 95.261719 C 42.824219 87.179688 36.242188 80.597656 28.160156 80.597656 Z M 28.160156 108.898438 C 20.640625 108.898438 14.523438 102.777344 14.523438 95.261719 C 14.523438 87.746094 20.640625 81.625 28.160156 81.625 C 35.675781 81.625 41.796875 87.746094 41.796875 95.261719 C 41.796875 102.785156 35.675781 108.898438 28.160156 108.898438 Z M 28.160156 108.898438 " fill-opacity="1" fill-rule="nonzero"/><path fill="#ffffff" d="M 28.160156 83.585938 L 27.011719 83.617188 C 26.632812 83.660156 26.253906 83.714844 25.871094 83.765625 C 25.496094 83.839844 25.125 83.941406 24.75 84.03125 C 24.382812 84.140625 24.023438 84.28125 23.65625 84.40625 C 22.226562 84.976562 20.925781 85.851562 19.828125 86.9375 C 18.746094 88.03125 17.871094 89.335938 17.296875 90.765625 C 17.171875 91.132812 17.03125 91.488281 16.921875 91.859375 C 16.835938 92.230469 16.730469 92.601562 16.65625 92.976562 C 16.605469 93.355469 16.550781 93.734375 16.511719 94.121094 L 16.480469 95.265625 C 16.523438 93.742188 16.84375 92.222656 17.445312 90.828125 C 18.039062 89.4375 18.898438 88.152344 19.976562 87.082031 C 21.039062 86.003906 22.324219 85.148438 23.722656 84.550781 C 25.117188 83.953125 26.632812 83.632812 28.160156 83.585938 Z M 28.160156 83.585938 " fill-opacity="1" fill-rule="nonzero"/><path fill="#ffffff" d="M 38.449219 89.308594 C 38.929688 90.601562 39.191406 92 39.191406 93.453125 C 39.191406 100.183594 33.597656 105.644531 26.695312 105.644531 C 24.652344 105.644531 22.726562 105.164062 21.019531 104.320312 C 23.007812 105.867188 25.503906 106.785156 28.21875 106.785156 C 34.699219 106.785156 39.949219 101.53125 39.949219 95.054688 C 39.949219 92.96875 39.40625 91.007812 38.449219 89.308594 Z M 38.449219 89.308594 " fill-opacity="1" fill-rule="nonzero"/><g clip-path="url(#3eea7df73e)"><path fill="#ffffff" d="M 45.757812 70.972656 C 46.039062 74.269531 46.191406 77.558594 46.292969 80.855469 C 46.355469 82.5 46.371094 84.148438 46.40625 85.792969 L 46.441406 90.734375 L 46.40625 95.671875 C 46.371094 97.316406 46.355469 98.96875 46.292969 100.613281 C 46.191406 103.90625 46.039062 107.199219 45.757812 110.492188 C 45.472656 107.199219 45.324219 103.90625 45.222656 100.613281 C 45.160156 98.96875 45.144531 97.316406 45.109375 95.671875 L 45.070312 90.734375 L 45.109375 85.792969 C 45.144531 84.148438 45.160156 82.5 45.222656 80.855469 C 45.328125 77.558594 45.472656 74.269531 45.757812 70.972656 Z M 45.757812 70.972656 " fill-opacity="1" fill-rule="nonzero"/></g><g fill="#ffffff" fill-opacity="1"><g transform="translate(51.212015, 98.358032)"><g><path d="M 24.3125 -3.515625 C 24.375 -3.378906 24.398438 -3.207031 24.390625 -3 C 24.378906 -2.800781 24.265625 -2.722656 24.046875 -2.765625 C 23.160156 -2.878906 22.273438 -2.804688 21.390625 -2.546875 C 20.515625 -2.285156 19.664062 -1.929688 18.84375 -1.484375 C 18.019531 -1.035156 17.257812 -0.578125 16.5625 -0.109375 C 16.5 -0.0976562 16.441406 -0.0703125 16.390625 -0.03125 C 16.347656 0.0078125 16.296875 0.0390625 16.234375 0.0625 C 16.347656 0.175781 16.445312 0.28125 16.53125 0.375 C 16.9375 0.863281 17.09375 1.316406 17 1.734375 C 16.914062 2.148438 16.695312 2.53125 16.34375 2.875 C 16 3.226562 15.632812 3.546875 15.25 3.828125 C 13.800781 4.898438 12.175781 5.628906 10.375 6.015625 C 10.082031 6.066406 9.789062 5.960938 9.5 5.703125 C 9.207031 5.441406 9.0625 5.164062 9.0625 4.875 C 9.0625 4.3125 9.1875 3.816406 9.4375 3.390625 C 9.6875 2.972656 10 2.582031 10.375 2.21875 C 10.757812 1.863281 11.144531 1.519531 11.53125 1.1875 C 11.738281 1.007812 11.957031 0.832031 12.1875 0.65625 C 12.425781 0.488281 12.65625 0.316406 12.875 0.140625 C 12.226562 -0.015625 11.578125 -0.171875 10.921875 -0.328125 C 10.265625 -0.492188 9.613281 -0.65625 8.96875 -0.8125 C 8.21875 -1.007812 7.40625 -1.226562 6.53125 -1.46875 C 5.664062 -1.707031 4.832031 -2.019531 4.03125 -2.40625 C 3.238281 -2.789062 2.554688 -3.289062 1.984375 -3.90625 C 1.421875 -4.519531 1.0625 -5.28125 0.90625 -6.1875 C 0.75 -7.15625 0.910156 -8.046875 1.390625 -8.859375 C 1.878906 -9.671875 2.441406 -10.394531 3.078125 -11.03125 C 3.773438 -11.726562 4.523438 -12.378906 5.328125 -12.984375 C 6.128906 -13.585938 6.957031 -14.140625 7.8125 -14.640625 C 9.59375 -15.660156 11.460938 -16.453125 13.421875 -17.015625 C 13.984375 -17.171875 14.601562 -17.335938 15.28125 -17.515625 C 15.957031 -17.691406 16.632812 -17.796875 17.3125 -17.828125 C 17.988281 -17.867188 18.617188 -17.796875 19.203125 -17.609375 C 19.953125 -17.335938 20.5625 -16.859375 21.03125 -16.171875 C 21.507812 -15.484375 21.800781 -14.75 21.90625 -13.96875 C 21.976562 -13.289062 21.90625 -12.644531 21.6875 -12.03125 C 21.476562 -11.425781 21.191406 -10.847656 20.828125 -10.296875 C 20.472656 -9.742188 20.101562 -9.21875 19.71875 -8.71875 C 19.625 -8.5625 19.476562 -8.515625 19.28125 -8.578125 C 19.09375 -8.648438 18.910156 -8.769531 18.734375 -8.9375 C 18.554688 -9.113281 18.425781 -9.300781 18.34375 -9.5 C 18.257812 -9.707031 18.273438 -9.890625 18.390625 -10.046875 C 18.660156 -10.421875 18.945312 -10.832031 19.25 -11.28125 C 19.5625 -11.738281 19.828125 -12.21875 20.046875 -12.71875 C 20.273438 -13.226562 20.40625 -13.734375 20.4375 -14.234375 C 20.46875 -14.734375 20.335938 -15.21875 20.046875 -15.6875 C 19.847656 -16 19.5625 -16.1875 19.1875 -16.25 C 18.820312 -16.320312 18.441406 -16.320312 18.046875 -16.25 C 17.648438 -16.1875 17.300781 -16.132812 17 -16.09375 C 16.03125 -15.914062 15.066406 -15.679688 14.109375 -15.390625 C 12.328125 -14.867188 10.632812 -14.140625 9.03125 -13.203125 C 7.425781 -12.265625 5.957031 -11.15625 4.625 -9.875 C 4.226562 -9.507812 3.820312 -9.066406 3.40625 -8.546875 C 2.988281 -8.035156 2.675781 -7.488281 2.46875 -6.90625 C 2.269531 -6.332031 2.300781 -5.742188 2.5625 -5.140625 C 2.726562 -4.710938 3.007812 -4.359375 3.40625 -4.078125 C 3.8125 -3.796875 4.242188 -3.566406 4.703125 -3.390625 C 5.171875 -3.222656 5.609375 -3.070312 6.015625 -2.9375 C 6.960938 -2.664062 7.925781 -2.414062 8.90625 -2.1875 C 9.882812 -1.96875 10.847656 -1.742188 11.796875 -1.515625 C 12.203125 -1.410156 12.617188 -1.316406 13.046875 -1.234375 C 13.484375 -1.148438 13.914062 -1.046875 14.34375 -0.921875 C 14.476562 -1.023438 14.617188 -1.117188 14.765625 -1.203125 C 14.910156 -1.296875 15.050781 -1.390625 15.1875 -1.484375 C 15.96875 -1.960938 16.796875 -2.441406 17.671875 -2.921875 C 18.554688 -3.410156 19.472656 -3.789062 20.421875 -4.0625 C 21.367188 -4.332031 22.316406 -4.410156 23.265625 -4.296875 C 23.753906 -4.242188 24.101562 -3.984375 24.3125 -3.515625 Z M 15.25 1.3125 C 15.425781 1.132812 15.519531 1.015625 15.53125 0.953125 C 15.550781 0.898438 15.457031 0.832031 15.25 0.75 C 14.507812 1.28125 13.800781 1.816406 13.125 2.359375 C 12.851562 2.566406 12.554688 2.796875 12.234375 3.046875 C 11.921875 3.296875 11.640625 3.566406 11.390625 3.859375 C 12.109375 3.566406 12.789062 3.207031 13.4375 2.78125 C 14.082031 2.363281 14.6875 1.875 15.25 1.3125 Z M 15.25 1.3125 "/></g></g></g><g fill="#ffffff" fill-opacity="1"><g transform="translate(74.647181, 98.358032)"><g><path d="M 13.53125 -3.78125 C 13.726562 -3.875 13.921875 -3.851562 14.109375 -3.71875 C 14.304688 -3.582031 14.429688 -3.40625 14.484375 -3.1875 C 14.546875 -2.976562 14.453125 -2.804688 14.203125 -2.671875 C 13.328125 -2.171875 12.4375 -1.640625 11.53125 -1.078125 C 10.625 -0.515625 9.6875 -0.0664062 8.71875 0.265625 C 8.175781 0.429688 7.640625 0.394531 7.109375 0.15625 C 6.585938 -0.0820312 6.300781 -0.519531 6.25 -1.15625 C 6.226562 -1.445312 6.253906 -1.742188 6.328125 -2.046875 C 6.410156 -2.347656 6.5 -2.632812 6.59375 -2.90625 C 6.664062 -3.09375 6.738281 -3.285156 6.8125 -3.484375 C 6.894531 -3.679688 6.96875 -3.875 7.03125 -4.0625 C 4.664062 -2.75 2.570312 -1.085938 0.75 0.921875 C 0.65625 1.046875 0.515625 1.070312 0.328125 1 C 0.148438 0.9375 0.0078125 0.863281 -0.09375 0.78125 C -0.726562 0.300781 -1.046875 -0.238281 -1.046875 -0.84375 C -1.046875 -1.457031 -0.929688 -2.113281 -0.703125 -2.8125 C -0.0976562 -4.476562 0.5625 -6.125 1.28125 -7.75 C 2.007812 -9.394531 2.816406 -11.003906 3.703125 -12.578125 C 4.585938 -14.160156 5.519531 -15.703125 6.5 -17.203125 C 6.601562 -17.347656 6.75 -17.390625 6.9375 -17.328125 C 7.132812 -17.273438 7.316406 -17.160156 7.484375 -16.984375 C 7.660156 -16.816406 7.789062 -16.625 7.875 -16.40625 C 7.96875 -16.195312 7.96875 -16.015625 7.875 -15.859375 C 6.164062 -13.304688 4.664062 -10.664062 3.375 -7.9375 C 2.726562 -6.570312 2.125 -5.1875 1.5625 -3.78125 C 1.332031 -3.175781 1.101562 -2.546875 0.875 -1.890625 C 1.601562 -2.566406 2.363281 -3.191406 3.15625 -3.765625 C 3.957031 -4.347656 4.785156 -4.894531 5.640625 -5.40625 C 6.066406 -5.65625 6.476562 -5.828125 6.875 -5.921875 C 7.269531 -6.023438 7.671875 -5.890625 8.078125 -5.515625 C 8.398438 -5.203125 8.585938 -4.847656 8.640625 -4.453125 C 8.691406 -4.054688 8.664062 -3.65625 8.5625 -3.25 C 8.507812 -2.925781 8.421875 -2.609375 8.296875 -2.296875 C 8.171875 -1.984375 8.054688 -1.671875 7.953125 -1.359375 C 8.890625 -1.648438 9.84375 -2.003906 10.8125 -2.421875 C 11.789062 -2.835938 12.695312 -3.289062 13.53125 -3.78125 Z M 13.53125 -3.78125 "/></g></g></g><g fill="#ffffff" fill-opacity="1"><g transform="translate(88.324955, 98.358032)"><g><path d="M 5.484375 -3.609375 C 5.660156 -3.753906 5.859375 -3.785156 6.078125 -3.703125 C 6.304688 -3.617188 6.46875 -3.472656 6.5625 -3.265625 C 6.65625 -3.066406 6.617188 -2.890625 6.453125 -2.734375 C 5.984375 -2.347656 5.5 -1.960938 5 -1.578125 C 4.507812 -1.203125 4.015625 -0.84375 3.515625 -0.5 C 3.085938 -0.226562 2.640625 0.0507812 2.171875 0.34375 C 1.710938 0.632812 1.238281 0.835938 0.75 0.953125 C 0.363281 1.015625 0.00390625 0.957031 -0.328125 0.78125 C -0.671875 0.601562 -0.945312 0.351562 -1.15625 0.03125 C -1.375 -0.28125 -1.484375 -0.628906 -1.484375 -1.015625 C -1.503906 -1.648438 -1.328125 -2.3125 -0.953125 -3 C -0.585938 -3.6875 -0.25 -4.300781 0.0625 -4.84375 C 0.175781 -5.019531 0.328125 -5.085938 0.515625 -5.046875 C 0.710938 -5.015625 0.90625 -4.921875 1.09375 -4.765625 C 1.289062 -4.609375 1.4375 -4.429688 1.53125 -4.234375 C 1.632812 -4.046875 1.644531 -3.882812 1.5625 -3.75 C 1.3125 -3.320312 1.078125 -2.890625 0.859375 -2.453125 C 0.648438 -2.015625 0.460938 -1.578125 0.296875 -1.140625 C 0.253906 -1.015625 0.203125 -0.882812 0.140625 -0.75 C 0.546875 -0.8125 1.078125 -0.992188 1.734375 -1.296875 C 2.398438 -1.609375 3.078125 -1.972656 3.765625 -2.390625 C 4.453125 -2.804688 5.023438 -3.210938 5.484375 -3.609375 Z M 2.875 -6.625 C 2.757812 -6.394531 2.5625 -6.335938 2.28125 -6.453125 C 2 -6.566406 1.75 -6.753906 1.53125 -7.015625 C 1.320312 -7.273438 1.265625 -7.507812 1.359375 -7.71875 C 1.535156 -8.070312 1.660156 -8.332031 1.734375 -8.5 C 1.816406 -8.664062 1.859375 -8.75 1.859375 -8.75 C 1.972656 -8.914062 2.125 -8.984375 2.3125 -8.953125 C 2.507812 -8.929688 2.703125 -8.84375 2.890625 -8.6875 C 3.078125 -8.53125 3.222656 -8.351562 3.328125 -8.15625 C 3.429688 -7.96875 3.445312 -7.796875 3.375 -7.640625 C 3.375 -7.640625 3.34375 -7.578125 3.28125 -7.453125 C 3.21875 -7.328125 3.082031 -7.050781 2.875 -6.625 Z M 2.875 -6.625 "/></g></g></g><g fill="#ffffff" fill-opacity="1"><g transform="translate(94.016765, 98.358032)"><g><path d="M 11.625 -3.75 C 11.832031 -3.84375 12.023438 -3.820312 12.203125 -3.6875 C 12.378906 -3.550781 12.476562 -3.378906 12.5 -3.171875 C 12.53125 -2.972656 12.421875 -2.816406 12.171875 -2.703125 C 11.429688 -2.335938 10.703125 -1.945312 9.984375 -1.53125 C 9.273438 -1.113281 8.5625 -0.679688 7.84375 -0.234375 C 7.414062 0.0351562 6.957031 0.332031 6.46875 0.65625 C 5.988281 0.976562 5.488281 1.207031 4.96875 1.34375 C 4.46875 1.457031 4.023438 1.316406 3.640625 0.921875 C 3.265625 0.535156 3.113281 0.09375 3.1875 -0.40625 C 3.226562 -0.695312 3.300781 -0.984375 3.40625 -1.265625 C 3.519531 -1.546875 3.644531 -1.832031 3.78125 -2.125 C 2.113281 -1.1875 0.660156 0.015625 -0.578125 1.484375 C -0.734375 1.671875 -0.929688 1.691406 -1.171875 1.546875 C -1.421875 1.410156 -1.628906 1.203125 -1.796875 0.921875 C -1.972656 0.648438 -2.039062 0.429688 -2 0.265625 C -1.8125 -0.472656 -1.550781 -1.195312 -1.21875 -1.90625 C -0.882812 -2.613281 -0.523438 -3.304688 -0.140625 -3.984375 C -0.046875 -4.148438 0.09375 -4.21875 0.28125 -4.1875 C 0.476562 -4.164062 0.671875 -4.078125 0.859375 -3.921875 C 1.054688 -3.765625 1.203125 -3.582031 1.296875 -3.375 C 1.398438 -3.175781 1.414062 -3.007812 1.34375 -2.875 C 1.34375 -2.851562 1.335938 -2.832031 1.328125 -2.8125 C 1.316406 -2.789062 1.300781 -2.773438 1.28125 -2.765625 C 2.59375 -3.671875 4.015625 -4.359375 5.546875 -4.828125 C 5.765625 -4.898438 5.988281 -4.851562 6.21875 -4.6875 C 6.445312 -4.519531 6.625 -4.316406 6.75 -4.078125 C 6.875 -3.835938 6.878906 -3.613281 6.765625 -3.40625 C 6.515625 -2.988281 6.273438 -2.570312 6.046875 -2.15625 C 5.828125 -1.75 5.613281 -1.332031 5.40625 -0.90625 C 6.40625 -1.40625 7.4375 -1.882812 8.5 -2.34375 C 9.570312 -2.8125 10.613281 -3.28125 11.625 -3.75 Z M 11.625 -3.75 "/></g></g></g><g fill="#ffffff" fill-opacity="1"><g transform="translate(105.719832, 98.358032)"><g><path d="M 7.546875 -3.625 C 7.742188 -3.78125 7.957031 -3.804688 8.1875 -3.703125 C 8.425781 -3.597656 8.59375 -3.4375 8.6875 -3.21875 C 8.78125 -3.007812 8.734375 -2.847656 8.546875 -2.734375 C 7.398438 -1.972656 6.21875 -1.207031 5 -0.4375 C 3.789062 0.332031 2.539062 0.953125 1.25 1.421875 C 0.757812 1.597656 0.285156 1.671875 -0.171875 1.640625 C -0.640625 1.609375 -1.046875 1.367188 -1.390625 0.921875 C -1.742188 0.460938 -1.863281 -0.0507812 -1.75 -0.625 C -1.644531 -1.195312 -1.425781 -1.742188 -1.09375 -2.265625 C -0.769531 -2.785156 -0.441406 -3.222656 -0.109375 -3.578125 C 0.171875 -3.898438 0.515625 -4.195312 0.921875 -4.46875 C 1.335938 -4.738281 1.757812 -4.894531 2.1875 -4.9375 C 2.625 -4.976562 3.03125 -4.796875 3.40625 -4.390625 C 3.726562 -4.054688 3.859375 -3.722656 3.796875 -3.390625 C 3.742188 -3.066406 3.566406 -2.765625 3.265625 -2.484375 C 2.960938 -2.203125 2.609375 -1.941406 2.203125 -1.703125 C 1.796875 -1.472656 1.40625 -1.269531 1.03125 -1.09375 C 0.65625 -0.925781 0.359375 -0.785156 0.140625 -0.671875 C 0.046875 -0.453125 -0.03125 -0.238281 -0.09375 -0.03125 C 0.332031 -0.0820312 0.882812 -0.234375 1.5625 -0.484375 C 2.238281 -0.742188 2.957031 -1.054688 3.71875 -1.421875 C 4.488281 -1.785156 5.210938 -2.160156 5.890625 -2.546875 C 6.566406 -2.941406 7.117188 -3.300781 7.546875 -3.625 Z M 7.546875 -3.625 "/></g></g></g><g fill="#ffffff" fill-opacity="1"><g transform="translate(113.415391, 98.358032)"><g/></g></g><g fill="#ffffff" fill-opacity="1"><g transform="translate(124.363417, 98.358032)"><g><path d="M 24.3125 -3.515625 C 24.375 -3.378906 24.398438 -3.207031 24.390625 -3 C 24.378906 -2.800781 24.265625 -2.722656 24.046875 -2.765625 C 23.160156 -2.878906 22.273438 -2.804688 21.390625 -2.546875 C 20.515625 -2.285156 19.664062 -1.929688 18.84375 -1.484375 C 18.019531 -1.035156 17.257812 -0.578125 16.5625 -0.109375 C 16.5 -0.0976562 16.441406 -0.0703125 16.390625 -0.03125 C 16.347656 0.0078125 16.296875 0.0390625 16.234375 0.0625 C 16.347656 0.175781 16.445312 0.28125 16.53125 0.375 C 16.9375 0.863281 17.09375 1.316406 17 1.734375 C 16.914062 2.148438 16.695312 2.53125 16.34375 2.875 C 16 3.226562 15.632812 3.546875 15.25 3.828125 C 13.800781 4.898438 12.175781 5.628906 10.375 6.015625 C 10.082031 6.066406 9.789062 5.960938 9.5 5.703125 C 9.207031 5.441406 9.0625 5.164062 9.0625 4.875 C 9.0625 4.3125 9.1875 3.816406 9.4375 3.390625 C 9.6875 2.972656 10 2.582031 10.375 2.21875 C 10.757812 1.863281 11.144531 1.519531 11.53125 1.1875 C 11.738281 1.007812 11.957031 0.832031 12.1875 0.65625 C 12.425781 0.488281 12.65625 0.316406 12.875 0.140625 C 12.226562 -0.015625 11.578125 -0.171875 10.921875 -0.328125 C 10.265625 -0.492188 9.613281 -0.65625 8.96875 -0.8125 C 8.21875 -1.007812 7.40625 -1.226562 6.53125 -1.46875 C 5.664062 -1.707031 4.832031 -2.019531 4.03125 -2.40625 C 3.238281 -2.789062 2.554688 -3.289062 1.984375 -3.90625 C 1.421875 -4.519531 1.0625 -5.28125 0.90625 -6.1875 C 0.75 -7.15625 0.910156 -8.046875 1.390625 -8.859375 C 1.878906 -9.671875 2.441406 -10.394531 3.078125 -11.03125 C 3.773438 -11.726562 4.523438 -12.378906 5.328125 -12.984375 C 6.128906 -13.585938 6.957031 -14.140625 7.8125 -14.640625 C 9.59375 -15.660156 11.460938 -16.453125 13.421875 -17.015625 C 13.984375 -17.171875 14.601562 -17.335938 15.28125 -17.515625 C 15.957031 -17.691406 16.632812 -17.796875 17.3125 -17.828125 C 17.988281 -17.867188 18.617188 -17.796875 19.203125 -17.609375 C 19.953125 -17.335938 20.5625 -16.859375 21.03125 -16.171875 C 21.507812 -15.484375 21.800781 -14.75 21.90625 -13.96875 C 21.976562 -13.289062 21.90625 -12.644531 21.6875 -12.03125 C 21.476562 -11.425781 21.191406 -10.847656 20.828125 -10.296875 C 20.472656 -9.742188 20.101562 -9.21875 19.71875 -8.71875 C 19.625 -8.5625 19.476562 -8.515625 19.28125 -8.578125 C 19.09375 -8.648438 18.910156 -8.769531 18.734375 -8.9375 C 18.554688 -9.113281 18.425781 -9.300781 18.34375 -9.5 C 18.257812 -9.707031 18.273438 -9.890625 18.390625 -10.046875 C 18.660156 -10.421875 18.945312 -10.832031 19.25 -11.28125 C 19.5625 -11.738281 19.828125 -12.21875 20.046875 -12.71875 C 20.273438 -13.226562 20.40625 -13.734375 20.4375 -14.234375 C 20.46875 -14.734375 20.335938 -15.21875 20.046875 -15.6875 C 19.847656 -16 19.5625 -16.1875 19.1875 -16.25 C 18.820312 -16.320312 18.441406 -16.320312 18.046875 -16.25 C 17.648438 -16.1875 17.300781 -16.132812 17 -16.09375 C 16.03125 -15.914062 15.066406 -15.679688 14.109375 -15.390625 C 12.328125 -14.867188 10.632812 -14.140625 9.03125 -13.203125 C 7.425781 -12.265625 5.957031 -11.15625 4.625 -9.875 C 4.226562 -9.507812 3.820312 -9.066406 3.40625 -8.546875 C 2.988281 -8.035156 2.675781 -7.488281 2.46875 -6.90625 C 2.269531 -6.332031 2.300781 -5.742188 2.5625 -5.140625 C 2.726562 -4.710938 3.007812 -4.359375 3.40625 -4.078125 C 3.8125 -3.796875 4.242188 -3.566406 4.703125 -3.390625 C 5.171875 -3.222656 5.609375 -3.070312 6.015625 -2.9375 C 6.960938 -2.664062 7.925781 -2.414062 8.90625 -2.1875 C 9.882812 -1.96875 10.847656 -1.742188 11.796875 -1.515625 C 12.203125 -1.410156 12.617188 -1.316406 13.046875 -1.234375 C 13.484375 -1.148438 13.914062 -1.046875 14.34375 -0.921875 C 14.476562 -1.023438 14.617188 -1.117188 14.765625 -1.203125 C 14.910156 -1.296875 15.050781 -1.390625 15.1875 -1.484375 C 15.96875 -1.960938 16.796875 -2.441406 17.671875 -2.921875 C 18.554688 -3.410156 19.472656 -3.789062 20.421875 -4.0625 C 21.367188 -4.332031 22.316406 -4.410156 23.265625 -4.296875 C 23.753906 -4.242188 24.101562 -3.984375 24.3125 -3.515625 Z M 15.25 1.3125 C 15.425781 1.132812 15.519531 1.015625 15.53125 0.953125 C 15.550781 0.898438 15.457031 0.832031 15.25 0.75 C 14.507812 1.28125 13.800781 1.816406 13.125 2.359375 C 12.851562 2.566406 12.554688 2.796875 12.234375 3.046875 C 11.921875 3.296875 11.640625 3.566406 11.390625 3.859375 C 12.109375 3.566406 12.789062 3.207031 13.4375 2.78125 C 14.082031 2.363281 14.6875 1.875 15.25 1.3125 Z M 15.25 1.3125 "/></g></g></g><g fill="#ffffff" fill-opacity="1"><g transform="translate(147.798582, 98.358032)"><g><path d="M 14.4375 -11.15625 C 14.613281 -11.0625 14.789062 -10.910156 14.96875 -10.703125 C 15.15625 -10.503906 15.238281 -10.296875 15.21875 -10.078125 C 15.195312 -9.867188 15.109375 -9.75 14.953125 -9.71875 C 14.804688 -9.6875 14.644531 -9.71875 14.46875 -9.8125 C 13.707031 -10.207031 12.910156 -10.472656 12.078125 -10.609375 C 11.242188 -10.742188 10.410156 -10.835938 9.578125 -10.890625 C 7.929688 -10.984375 6.28125 -11.023438 4.625 -11.015625 C 4.601562 -11.015625 4.582031 -11.015625 4.5625 -11.015625 C 4.539062 -11.015625 4.53125 -11.015625 4.53125 -11.015625 C 3.675781 -9.128906 2.894531 -7.21875 2.1875 -5.28125 C 1.488281 -3.34375 0.929688 -1.378906 0.515625 0.609375 C 0.0976562 2.609375 -0.09375 4.640625 -0.0625 6.703125 C -0.0625 6.941406 -0.132812 7.066406 -0.28125 7.078125 C -0.4375 7.097656 -0.617188 7.046875 -0.828125 6.921875 C -1.035156 6.796875 -1.210938 6.640625 -1.359375 6.453125 C -1.515625 6.273438 -1.59375 6.097656 -1.59375 5.921875 C -1.65625 2.984375 -1.28125 0.113281 -0.46875 -2.6875 C 0.34375 -5.5 1.332031 -8.242188 2.5 -10.921875 C -0.289062 -10.765625 -3.050781 -10.425781 -5.78125 -9.90625 C -5.957031 -9.863281 -6.144531 -9.910156 -6.34375 -10.046875 C -6.550781 -10.179688 -6.726562 -10.34375 -6.875 -10.53125 C -7.019531 -10.726562 -7.097656 -10.914062 -7.109375 -11.09375 C -7.128906 -11.269531 -7.054688 -11.378906 -6.890625 -11.421875 C -5.222656 -11.722656 -3.546875 -11.972656 -1.859375 -12.171875 C -0.171875 -12.367188 1.519531 -12.484375 3.21875 -12.515625 C 3.53125 -13.191406 3.84375 -13.863281 4.15625 -14.53125 C 4.46875 -15.207031 4.785156 -15.875 5.109375 -16.53125 C 5.191406 -16.695312 5.328125 -16.765625 5.515625 -16.734375 C 5.710938 -16.710938 5.90625 -16.625 6.09375 -16.46875 C 6.289062 -16.3125 6.441406 -16.132812 6.546875 -15.9375 C 6.648438 -15.75 6.664062 -15.578125 6.59375 -15.421875 C 6.363281 -14.941406 6.132812 -14.460938 5.90625 -13.984375 C 5.6875 -13.515625 5.460938 -13.046875 5.234375 -12.578125 C 6.253906 -12.578125 7.300781 -12.554688 8.375 -12.515625 C 9.445312 -12.484375 10.5 -12.363281 11.53125 -12.15625 C 12.570312 -11.945312 13.539062 -11.613281 14.4375 -11.15625 Z M 14.4375 -11.15625 "/></g></g></g><g fill="#ffffff" fill-opacity="1"><g transform="translate(151.80608, 98.358032)"><g><path d="M 10.203125 -3.6875 C 10.367188 -3.863281 10.554688 -3.898438 10.765625 -3.796875 C 10.984375 -3.703125 11.132812 -3.546875 11.21875 -3.328125 C 11.3125 -3.117188 11.28125 -2.929688 11.125 -2.765625 C 10.539062 -2.160156 9.945312 -1.5625 9.34375 -0.96875 C 8.75 -0.382812 8.113281 0.128906 7.4375 0.578125 C 7.101562 0.804688 6.757812 0.976562 6.40625 1.09375 C 6.0625 1.21875 5.707031 1.160156 5.34375 0.921875 C 4.957031 0.691406 4.703125 0.390625 4.578125 0.015625 C 4.453125 -0.359375 4.414062 -0.757812 4.46875 -1.1875 C 4.46875 -1.207031 4.46875 -1.226562 4.46875 -1.25 C 4.46875 -1.269531 4.476562 -1.289062 4.5 -1.3125 C 4.039062 -0.882812 3.566406 -0.472656 3.078125 -0.078125 C 2.597656 0.304688 2.085938 0.648438 1.546875 0.953125 C 1.054688 1.242188 0.5625 1.414062 0.0625 1.46875 C -0.425781 1.519531 -0.863281 1.28125 -1.25 0.75 C -1.582031 0.3125 -1.695312 -0.210938 -1.59375 -0.828125 C -1.5 -1.453125 -1.289062 -2.054688 -0.96875 -2.640625 C -0.65625 -3.222656 -0.34375 -3.695312 -0.03125 -4.0625 C 0.0820312 -4.195312 0.238281 -4.226562 0.4375 -4.15625 C 0.644531 -4.09375 0.835938 -3.972656 1.015625 -3.796875 C 1.191406 -3.628906 1.316406 -3.441406 1.390625 -3.234375 C 1.472656 -3.035156 1.457031 -2.867188 1.34375 -2.734375 C 1.125 -2.484375 0.9375 -2.21875 0.78125 -1.9375 C 0.625 -1.65625 0.488281 -1.367188 0.375 -1.078125 C 0.238281 -0.785156 0.144531 -0.53125 0.09375 -0.3125 C 0.320312 -0.4375 0.546875 -0.578125 0.765625 -0.734375 C 0.992188 -0.898438 1.210938 -1.0625 1.421875 -1.21875 C 2.140625 -1.78125 2.820312 -2.363281 3.46875 -2.96875 C 4.113281 -3.582031 4.769531 -4.191406 5.4375 -4.796875 C 5.625 -4.960938 5.835938 -4.972656 6.078125 -4.828125 C 6.328125 -4.691406 6.53125 -4.492188 6.6875 -4.234375 C 6.851562 -3.984375 6.910156 -3.765625 6.859375 -3.578125 C 6.742188 -3.148438 6.617188 -2.722656 6.484375 -2.296875 C 6.359375 -1.867188 6.25 -1.441406 6.15625 -1.015625 C 6.132812 -0.941406 6.113281 -0.851562 6.09375 -0.75 C 6.5 -0.851562 6.960938 -1.078125 7.484375 -1.421875 C 8.015625 -1.773438 8.519531 -2.160156 9 -2.578125 C 9.488281 -3.003906 9.890625 -3.375 10.203125 -3.6875 Z M 10.203125 -3.6875 "/></g></g></g><g fill="#ffffff" fill-opacity="1"><g transform="translate(162.115232, 98.358032)"><g><path d="M 11.5 -16.609375 C 11.75 -16.535156 11.984375 -16.375 12.203125 -16.125 C 12.429688 -15.875 12.523438 -15.640625 12.484375 -15.421875 C 12.484375 -15.378906 12.476562 -15.34375 12.46875 -15.3125 C 10.96875 -12.382812 9.519531 -9.441406 8.125 -6.484375 C 6.738281 -3.535156 5.507812 -0.515625 4.4375 2.578125 C 4.382812 2.773438 4.265625 2.859375 4.078125 2.828125 C 3.898438 2.796875 3.710938 2.707031 3.515625 2.5625 C 3.316406 2.425781 3.160156 2.253906 3.046875 2.046875 C 2.929688 1.847656 2.90625 1.660156 2.96875 1.484375 C 3.175781 0.859375 3.390625 0.234375 3.609375 -0.390625 C 3.835938 -1.023438 4.078125 -1.640625 4.328125 -2.234375 C 3.585938 -1.460938 2.785156 -0.753906 1.921875 -0.109375 C 1.066406 0.523438 0.109375 1.035156 -0.953125 1.421875 C -1.148438 1.503906 -1.359375 1.472656 -1.578125 1.328125 C -1.804688 1.179688 -1.984375 0.988281 -2.109375 0.75 C -2.234375 0.519531 -2.273438 0.304688 -2.234375 0.109375 C -2.046875 -0.753906 -1.71875 -1.597656 -1.25 -2.421875 C -0.78125 -3.242188 -0.191406 -3.925781 0.515625 -4.46875 C 1.023438 -4.851562 1.566406 -5.03125 2.140625 -5 C 2.722656 -4.976562 3.226562 -4.773438 3.65625 -4.390625 C 3.769531 -4.523438 3.878906 -4.648438 3.984375 -4.765625 C 5.378906 -6.546875 6.632812 -8.425781 7.75 -10.40625 C 8.875 -12.394531 9.941406 -14.394531 10.953125 -16.40625 C 10.972656 -16.425781 10.984375 -16.445312 10.984375 -16.46875 C 11.054688 -16.582031 11.171875 -16.640625 11.328125 -16.640625 C 11.390625 -16.640625 11.445312 -16.628906 11.5 -16.609375 Z M 0.109375 -1.046875 C 0.640625 -1.378906 1.132812 -1.75 1.59375 -2.15625 C 2.0625 -2.570312 2.507812 -3.015625 2.9375 -3.484375 C 2.894531 -3.503906 2.863281 -3.515625 2.84375 -3.515625 C 2.789062 -3.515625 2.734375 -3.507812 2.671875 -3.5 C 2.609375 -3.488281 2.550781 -3.472656 2.5 -3.453125 C 2.34375 -3.421875 2.191406 -3.351562 2.046875 -3.25 C 1.898438 -3.15625 1.769531 -3.0625 1.65625 -2.96875 C 1.457031 -2.789062 1.269531 -2.601562 1.09375 -2.40625 C 0.925781 -2.21875 0.765625 -2.023438 0.609375 -1.828125 C 0.429688 -1.578125 0.265625 -1.316406 0.109375 -1.046875 Z M 0.109375 -1.046875 "/></g></g></g><g fill="#ffffff" fill-opacity="1"><g transform="translate(171.466071, 98.358032)"><g><path d="M 5.484375 -3.609375 C 5.660156 -3.753906 5.859375 -3.785156 6.078125 -3.703125 C 6.304688 -3.617188 6.46875 -3.472656 6.5625 -3.265625 C 6.65625 -3.066406 6.617188 -2.890625 6.453125 -2.734375 C 5.984375 -2.347656 5.5 -1.960938 5 -1.578125 C 4.507812 -1.203125 4.015625 -0.84375 3.515625 -0.5 C 3.085938 -0.226562 2.640625 0.0507812 2.171875 0.34375 C 1.710938 0.632812 1.238281 0.835938 0.75 0.953125 C 0.363281 1.015625 0.00390625 0.957031 -0.328125 0.78125 C -0.671875 0.601562 -0.945312 0.351562 -1.15625 0.03125 C -1.375 -0.28125 -1.484375 -0.628906 -1.484375 -1.015625 C -1.503906 -1.648438 -1.328125 -2.3125 -0.953125 -3 C -0.585938 -3.6875 -0.25 -4.300781 0.0625 -4.84375 C 0.175781 -5.019531 0.328125 -5.085938 0.515625 -5.046875 C 0.710938 -5.015625 0.90625 -4.921875 1.09375 -4.765625 C 1.289062 -4.609375 1.4375 -4.429688 1.53125 -4.234375 C 1.632812 -4.046875 1.644531 -3.882812 1.5625 -3.75 C 1.3125 -3.320312 1.078125 -2.890625 0.859375 -2.453125 C 0.648438 -2.015625 0.460938 -1.578125 0.296875 -1.140625 C 0.253906 -1.015625 0.203125 -0.882812 0.140625 -0.75 C 0.546875 -0.8125 1.078125 -0.992188 1.734375 -1.296875 C 2.398438 -1.609375 3.078125 -1.972656 3.765625 -2.390625 C 4.453125 -2.804688 5.023438 -3.210938 5.484375 -3.609375 Z M 2.875 -6.625 C 2.757812 -6.394531 2.5625 -6.335938 2.28125 -6.453125 C 2 -6.566406 1.75 -6.753906 1.53125 -7.015625 C 1.320312 -7.273438 1.265625 -7.507812 1.359375 -7.71875 C 1.535156 -8.070312 1.660156 -8.332031 1.734375 -8.5 C 1.816406 -8.664062 1.859375 -8.75 1.859375 -8.75 C 1.972656 -8.914062 2.125 -8.984375 2.3125 -8.953125 C 2.507812 -8.929688 2.703125 -8.84375 2.890625 -8.6875 C 3.078125 -8.53125 3.222656 -8.351562 3.328125 -8.15625 C 3.429688 -7.96875 3.445312 -7.796875 3.375 -7.640625 C 3.375 -7.640625 3.34375 -7.578125 3.28125 -7.453125 C 3.21875 -7.328125 3.082031 -7.050781 2.875 -6.625 Z M 2.875 -6.625 "/></g></g></g><g fill="#ffffff" fill-opacity="1"><g transform="translate(177.15788, 98.358032)"><g><path d="M 3.40625 -3.828125 C 3.476562 -3.078125 3.410156 -2.335938 3.203125 -1.609375 C 3.003906 -0.878906 2.671875 -0.226562 2.203125 0.34375 C 1.773438 0.90625 1.253906 1.269531 0.640625 1.4375 C 0.0351562 1.601562 -0.535156 1.382812 -1.078125 0.78125 C -1.554688 0.238281 -1.753906 -0.347656 -1.671875 -0.984375 C -1.597656 -1.628906 -1.347656 -2.25 -0.921875 -2.84375 C -0.503906 -3.445312 -0.015625 -3.984375 0.546875 -4.453125 C 1.109375 -4.929688 1.625 -5.285156 2.09375 -5.515625 C 2.28125 -5.617188 2.492188 -5.582031 2.734375 -5.40625 C 2.984375 -5.226562 3.175781 -5.007812 3.3125 -4.75 C 3.445312 -4.488281 3.445312 -4.28125 3.3125 -4.125 C 3.351562 -4.03125 3.382812 -3.929688 3.40625 -3.828125 Z M 1.421875 -1.890625 C 1.597656 -2.273438 1.722656 -2.679688 1.796875 -3.109375 C 1.503906 -2.859375 1.242188 -2.585938 1.015625 -2.296875 C 0.722656 -1.929688 0.484375 -1.535156 0.296875 -1.109375 C 0.234375 -1.003906 0.179688 -0.90625 0.140625 -0.8125 C 0.109375 -0.71875 0.0703125 -0.617188 0.03125 -0.515625 C 0.03125 -0.503906 0.0234375 -0.457031 0.015625 -0.375 C 0.00390625 -0.300781 -0.0078125 -0.234375 -0.03125 -0.171875 C 0.0820312 -0.265625 0.191406 -0.34375 0.296875 -0.40625 C 0.410156 -0.476562 0.515625 -0.566406 0.609375 -0.671875 C 0.941406 -1.035156 1.210938 -1.441406 1.421875 -1.890625 Z M 1.421875 -1.890625 "/></g></g></g></svg>